<svg viewBox="0 0 1400 1024" xmlns="http://www.w3.org/2000/svg"><rect width="1400" height="1024" rx="64" fill="#F7F5F0"/><g transform="translate(80,0)"><path fill="#E573A0" d="M512 320c-40 60-160 120-220 220 120 0 220-40 220-40s100 40 220 40c-60-100-180-160-220-220z"/><path fill="#E573A0" opacity="0.9" d="M352 520c-40 20-80 80-80 120 80 0 160-20 240-40 80 20 160 40 240 40 0-40-40-100-80-120-120 0-240 0-320 0z"/><circle cx="512" cy="520" r="120" fill="none" stroke="#2D2A32" stroke-width="28"/><path d="M512 520 L512 460 M512 520 L572 520" stroke="#2D2A32" stroke-width="28" stroke-linecap="round"/><path d="M430 740l60 60 120-120" fill="none" stroke="#2D2A32" stroke-width="32" stroke-linecap="round" stroke-linejoin="round"/></g><text x="900" y="470" font-size="100" fill="#2D2A32" text-anchor="middle">สติเวร</text><text x="900" y="540" font-size="48" fill="#2D2A32" text-anchor="middle">SatiShift</text><text x="900" y="610" font-size="28" fill="#2D2A32" text-anchor="middle">จัดเวรอย่างมีสติ • เรียนรู้งานง่าย</text></svg>